HIERARCHY
ROOT Hips
{
	OFFSET 0.000000 0.000000 0.000000
	CHANNELS 6 Xposition Yposition Zposition Zrotation Yrotation Xrotation 
	JOINT LHipJoint
	{
		OFFSET 0.000000 0.000000 0.000000
		CHANNELS 3 Zrotation Yrotation Xrotation
		JOINT LeftUpLeg
		{
			OFFSET 1.363060 -1.794630 0.839290
			CHANNELS 3 Zrotation Yrotation Xrotation
			JOINT LeftLeg
			{
				OFFSET 2.448110 -6.726130 0.000000
				CHANNELS 3 Zrotation Yrotation Xrotation
				JOINT LeftFoot
				{
					OFFSET 2.562200 -7.039590 0.000000
					CHANNELS 3 Zrotation Yrotation Xrotation
					JOINT LeftToeBase
					{
						OFFSET 0.157640 -0.433110 2.322550
						CHANNELS 3 Zrotation Yrotation Xrotation
						End Site
						{
							OFFSET 0.000000 0.000000 0.000000
						}
					}
				}
			}
		}
	}
	JOINT RHipJoint
	{
		OFFSET 0.000000 0.000000 0.000000
		CHANNELS 3 Zrotation Yrotation Xrotation
		JOINT RightUpLeg
		{
			OFFSET -1.305520 -1.794630 0.839290
			CHANNELS 3 Zrotation Yrotation Xrotation
			JOINT RightLeg
			{
				OFFSET -2.542530 -6.985550 0.000000
				CHANNELS 3 Zrotation Yrotation Xrotation
				JOINT RightFoot
				{
					OFFSET -2.568260 -7.056230 0.000000
					CHANNELS 3 Zrotation Yrotation Xrotation
					JOINT RightToeBase
					{
						OFFSET -0.164730 -0.452590 2.363150
						CHANNELS 3 Zrotation Yrotation Xrotation
						End Site
						{
							OFFSET 0.000000 0.000000 0.000000
						}
					}
				}
			}
		}
	}
}
MOTION
Frames: 22
Frame Time: 0.008333
-17.750947 16.113096 -0.417594 -4.158775 86.094829 34.490076 -8.159476 -1.843979 2.201343 -7.846064 -9.762857 -69.509252 -1.224831 2.032150 44.371380 2.948119 10.001369 -15.391764 -0.847699 0.000000 -24.155400 11.421403 -1.786295 -3.352927 4.330268 -6.480174 -20.564681 0.131682 -2.876171 44.541338 -2.763584 -15.658184 7.334891 -4.280300 0.000000 -51.841500
-17.575100 15.983071 -0.433714 -3.368429 86.005422 34.933931 -8.173908 -1.979442 1.860956 -8.190519 -9.693299 -70.006446 -1.030109 2.360907 48.206486 3.041074 10.283260 -16.944799 -1.236800 -0.000000 -23.207200 11.506149 -1.719583 -3.461349 3.831589 -6.466767 -20.988017 0.009693 -3.104364 47.519078 -2.844597 -16.053158 5.725567 -3.956200 0.000000 -50.774800
-17.401198 15.857294 -0.447192 -1.894709 85.958305 36.032860 -8.165611 -2.111260 1.492894 -8.632880 -9.632595 -70.256402 -0.863833 2.640863 51.742722 3.148207 10.616107 -18.661478 -1.684300 -0.000001 -22.587399 11.619968 -1.657546 -3.574049 3.288591 -6.398852 -21.393814 -0.108933 -3.348009 50.414961 -2.879753 -16.171509 4.102858 -3.537401 0.000000 -49.835600
-17.229171 15.738024 -0.458394 0.102597 85.948134 37.639238 -8.136835 -2.231036 1.104517 -9.160771 -9.575304 -70.261101 -0.727622 2.873834 54.932511 3.268609 10.990377 -20.495890 -2.185399 -0.000000 -22.322100 11.759345 -1.598682 -3.688199 2.724883 -6.269080 -21.801234 -0.225917 -3.603814 53.218466 -2.874410 -16.052141 2.458668 -3.055300 0.000000 -48.975000
-17.058000 15.627037 -0.467822 2.424339 85.965443 39.566688 -8.091799 -2.331039 0.705757 -9.751903 -9.514314 -70.036644 -0.620926 3.063386 57.749828 3.399762 11.392459 -22.392954 -2.730900 -0.000000 -22.399200 11.918503 -1.540370 -3.799832 2.167806 -6.073263 -22.234362 -0.343377 -3.866731 55.927143 -2.836041 -15.743814 0.784926 -2.539300 0.000001 -48.110600
-16.886923 15.525720 -0.476320 4.846520 85.999346 41.606483 -8.038093 -2.405926 0.307886 -10.374770 -9.442171 -69.611583 -0.541659 3.214507 60.186012 3.537584 11.806178 -24.293406 -3.306200 0.000000 -22.768600 12.087493 -1.479130 -3.905297 1.647171 -5.809710 -22.720219 -0.463477 -4.130030 58.541300 -2.773887 -15.303509 -0.916897 -2.017000 0.000000 -47.187300
-16.715255 15.434937 -0.484646 7.187564 86.044083 43.590373 -7.984370 -2.453411 -0.075835 -10.997772 -9.357056 -69.020930 -0.486592 3.332027 62.247957 3.676817 12.213793 -26.139558 -3.892900 0.000000 -23.344400 12.255715 -1.413124 -4.000128 1.188432 -5.485089 -23.286688 -0.587436 -4.387397 61.065283 -2.697579 -14.787946 -2.641329 -1.509400 -0.000001 -46.126600
-16.541871 15.355158 -0.493632 9.316921 86.098925 45.400035 -7.939461 -2.474631 -0.432488 -11.589659 -9.262142 -68.302997 -0.451802 3.420540 63.954920 3.811756 12.598326 -27.880965 -4.470200 0.000000 -24.016500 12.412474 -1.341492 -4.080900 0.812535 -5.112588 -23.958466 -0.715717 -4.633191 63.502405 -2.616793 -14.252057 -4.374132 -1.031700 0.000000 -44.882399
-16.366349 15.286498 -0.503953 11.165194 86.168266 46.975272 -7.910665 -2.472890 -0.750382 -12.124428 -9.165297 -67.494392 -0.433189 3.483955 65.334769 3.937090 12.945342 -29.478450 -5.017999 0.000000 -24.668500 12.549049 -1.264234 -4.145097 0.534129 -4.711247 -24.755140 -0.848138 -4.862993 65.854110 -2.540247 -13.743492 -6.094314 -0.592700 0.000001 -43.436700
-16.188125 15.228784 -0.516088 12.711521 86.258605 48.302075 -7.902851 -2.452932 -1.021651 -12.582500 -9.076174 -66.627374 -0.426885 3.525763 66.421207 4.048769 13.245369 -30.907161 -5.520000 0.000000 -25.201601 12.659271 -1.180836 -4.192723 0.360964 -4.303185 -25.688996 -0.984032 -5.073795 68.117994 -2.475254 -13.300746 -7.776415 -0.195000 0.000000 -41.804400
-16.006642 15.181757 -0.530233 14.002191 86.378651 49.426445 -7.917270 -2.417855 -1.238993 -12.954753 -9.005597 -65.725315 -0.429760 3.548242 67.247319 4.144541 13.493819 -32.156366 -5.965200 0.000000 -25.551900 12.741480 -1.091424 -4.222301 0.292649 -3.912253 -26.762906 -1.122312 -5.263543 70.286233 -2.427162 -12.950803 -9.393789 0.163200 -0.000000 -40.029801
-15.821922 15.145116 -0.546373 15.096927 86.533443 50.406529 -7.952960 -2.371098 -1.402574 -13.238837 -8.959540 -64.803071 -0.439787 3.553815 67.843793 4.224007 13.692245 -33.229196 -6.349700 -0.000000 -25.697700 12.795324 -0.994113 -4.236953 0.324444 -3.558548 -27.970965 -1.261422 -5.431577 72.346433 -2.399141 -12.708510 -10.921001 0.486500 0.000000 -38.180200
-15.633922 15.118610 -0.564141 16.098185 86.726258 51.335811 -8.006334 -2.313161 -1.513281 -13.442559 -8.940153 -63.863221 -0.456254 3.543830 68.233918 4.288606 13.846079 -34.140538 -6.675800 -0.000001 -25.655700 12.823696 -0.887816 -4.237352 0.444901 -3.259074 -29.298573 -1.399148 -5.577874 74.280888 -2.392122 -12.576732 -12.337030 0.780400 -0.000000 -36.334300
-15.442982 15.102105 -0.583121 17.106269 86.955881 52.305020 -8.072763 -2.244744 -1.578513 -13.577506 -8.942734 -62.899400 -0.479772 3.519609 68.432679 4.340846 13.963498 -34.912913 -6.950900 -0.000000 -25.470900 12.829420 -0.770452 -4.227704 0.641238 -3.023904 -30.724234 -1.532532 -5.703440 76.068217 -2.404991 -12.547539 -13.626031 1.049600 0.000000 -34.572201
-15.249369 15.095614 -0.602688 18.242109 87.217874 53.421509 -8.146244 -2.164830 -1.607049 -13.660494 -8.957082 -61.895341 -0.512056 3.481556 68.445155 4.383945 14.053448 -35.572191 -7.184800 -0.000001 -25.206100 12.816870 -0.641007 -4.210499 0.897719 -2.857119 -32.221265 -1.657767 -5.809755 77.683766 -2.434730 -12.602832 -14.779595 1.297400 -0.000000 -32.963699
-15.053448 15.099299 -0.622208 19.618818 87.504010 54.784320 -8.220953 -2.072468 -1.610584 -13.708765 -8.967449 -60.828481 -0.555565 3.429786 68.267571 4.420675 14.122838 -36.141883 -7.387000 0.000000 -24.931600 12.789843 -0.499011 -4.188930 1.198819 -2.755788 -33.759632 -1.770456 -5.898560 79.101900 -2.476856 -12.716749 -15.795694 1.524600 0.000001 -31.563299
-14.855558 15.113421 -0.641123 21.330646 87.802872 56.473979 -8.292135 -1.966789 -1.601721 -13.738138 -8.954352 -59.672207 -0.613067 3.364138 67.888370 4.452897 14.175578 -36.639437 -7.564400 -0.000000 -24.716600 12.751015 -0.344846 -4.165785 1.529917 -2.711030 -35.308969 -1.865752 -5.971334 80.297405 -2.525775 -12.857290 -16.678810 1.730301 -0.000000 -30.404200
-14.655895 15.138324 -0.659004 23.435612 88.099236 58.536479 -8.357145 -1.847149 -1.592233 -13.761126 -8.896708 -58.400379 -0.687132 3.284547 67.290987 4.480774 14.210611 -37.071752 -7.719100 0.000000 -24.621500 12.701233 -0.179917 -4.142887 1.877805 -2.708939 -36.839168 -1.938844 -6.028670 81.247198 -2.575328 -12.989587 -17.437064 1.911600 -0.000000 -29.499900
-14.454481 15.174253 -0.675488 25.921845 88.376522 60.948674 -8.416171 -1.713657 -1.591269 -13.786261 -8.774211 -56.989206 -0.779609 3.190852 66.456544 4.502700 14.222352 -37.434081 -7.847300 0.000000 -24.692100 12.639146 -0.007180 -4.120051 2.231204 -2.732231 -38.323495 -1.985259 -6.070320 81.932030 -2.619229 -13.078228 -18.080865 2.064700 0.000000 -28.843101
-14.251157 15.221384 -0.690519 28.644431 88.619563 63.561227 -8.472904 -1.569596 -1.606526 -13.814918 -8.569935 -55.423328 -0.891087 3.082931 65.368460 4.514950 14.200163 -37.709061 -7.939400 0.000000 -24.955900 12.560276 0.168800 -4.097395 2.582214 -2.761999 -39.740350 -2.001113 -6.095716 82.337007 -2.651746 -13.091186 -18.620210 2.185100 0.000000 -28.412700
-14.045574 15.279645 -0.704168 31.315497 88.818447 66.084938 -8.532925 -1.420631 -1.641766 -13.843111 -8.272822 -53.695100 -1.020324 2.959838 64.016209 4.512386 14.130915 -37.869082 -7.981200 -0.000000 -25.420300 12.459487 0.340855 -4.072972 2.926523 -2.780515 -41.074767 -1.983633 -6.104678 82.453432 -2.668139 -13.002448 -19.062858 2.268500 -0.000001 -28.175600
-13.837375 15.348722 -0.716614 33.511174 88.972503 68.097651 -8.601333 -1.274698 -1.697828 -13.862226 -7.879615 -51.807208 -1.163802 2.819728 62.399322 4.488957 14.000462 -37.878725 -7.956300 -0.000000 -26.067800 12.333118 0.500232 -4.043841 3.262910 -2.772980 -42.318707 -1.931390 -6.098192 82.278659 -2.665223 -12.795401 -19.413185 2.311500 -0.000000 -28.096400
